<svg xmlns="http://www.w3.org/2000/svg" width="133.605" height="175.755" viewBox="0 0 133.605 175.755">
  <g id="rotate" transform="translate(-307.913 -141.945)">
    <g id="swipe" transform="translate(299 129.773)">
      <path id="Path_268" data-name="Path 268" d="M85.568,32.956v-.112c0-.022-.022-.067-.022-.089a.082.082,0,0,0-.022-.067c0-.045-.022-.089-.022-.134s-.022-.067-.022-.112c0-.022-.022-.067-.022-.089a2.378,2.378,0,0,0-.76-1.073L72.781,21.733a2.386,2.386,0,1,0-2.973,3.733l7.511,6.014-.286.337-.573.14c-1.3.156-2.338.965-2.182,2.262a2.325,2.325,0,0,0,2.544,1.774c.112,0,1.118-.075,1.229-.1l.564.236-4.65,7.712a2.39,2.39,0,0,0,2.057,3.622A2.455,2.455,0,0,0,78.079,46.3l7.109-11.848A2.289,2.289,0,0,0,85.568,32.956Z" transform="translate(-25.468 -25.15) rotate(29)" fill="#fff"/>
      <path id="Path_269" data-name="Path 269" d="M3766.674-971.311s20.008-6.161,21.059-12.465-8.809-11.6-21.1-14.12-37.182-5.777-62.118,2.491c-8,2.187-22.8,12.969,2.085,21.992" transform="translate(-3681.868 1015)" fill="none" stroke="#fff" stroke-linecap="round" stroke-linejoin="round" stroke-width="4"/>
      <g id="pointing-right" transform="translate(-36.183 187.927) rotate(-90)">
        <g id="Group_38" data-name="Group 38" transform="translate(0 58.824)">
          <path id="Path_270" data-name="Path 270" d="M141.831,78.055H94.855l-6.838-7.091a39.052,39.052,0,0,0-56.6,0L15.012,87.988A53.8,53.8,0,0,0,0,125.564c0,29.3,22.984,53.137,51.238,53.137h36.8c8.234,0,14.93-6.944,14.93-15.491a15.782,15.782,0,0,0-2.531-8.609,15.489,15.489,0,0,0,10-14.616,15.783,15.783,0,0,0-2.531-8.609,15.489,15.489,0,0,0,10-14.616,15.8,15.8,0,0,0-2.008-7.741H141.83c8.234,0,14.93-6.944,14.93-15.483S150.065,78.055,141.831,78.055Zm0,23.232H83.31a3.873,3.873,0,0,0,0,7.742h19.662a7.746,7.746,0,0,1,0,15.483h-20.2a3.873,3.873,0,0,0,0,7.742H95.507a7.746,7.746,0,0,1,0,15.483H83.042a3.873,3.873,0,0,0,0,7.742c.346,0,5.687.025,6.328.123a7.77,7.77,0,0,1-1.328,15.36h-36.8c-24.134,0-43.774-20.368-43.774-45.4a45.949,45.949,0,0,1,12.825-32.1L36.7,76.445a31.783,31.783,0,0,1,46.043,0l1.56,1.618H63.451a3.873,3.873,0,0,0,0,7.742h78.38a7.746,7.746,0,0,1,0,15.483Z" transform="translate(0 -58.824)" fill="#fff"/>
        </g>
      </g>
    </g>
  </g>
</svg>
