<svg xmlns="http://www.w3.org/2000/svg" width="179.048" height="179.64" viewBox="0 0 179.048 179.64">
  <g id="scale" transform="translate(-264.215 -136.133)">
    <g id="zoom-out" transform="translate(233.358 248.426) rotate(-48)">
      <g id="Group_33" data-name="Group 33" transform="translate(104.677 -3.865)">
        <g id="Group_32" data-name="Group 32" transform="translate(0)">
          <path id="Path_265" data-name="Path 265" d="M85.568,32.956v-.112c0-.022-.022-.067-.022-.089a.082.082,0,0,0-.022-.067c0-.045-.022-.089-.022-.134s-.022-.067-.022-.112c0-.022-.022-.067-.022-.089a2.378,2.378,0,0,0-.76-1.073L72.781,21.733a2.386,2.386,0,1,0-2.973,3.733l7.511,6.014L44.726,35.549a2.378,2.378,0,0,0,.291,4.739,1.476,1.476,0,0,0,.313-.022L78.616,36.13l-4.65,7.712a2.39,2.39,0,0,0,2.057,3.622A2.455,2.455,0,0,0,78.079,46.3l7.109-11.848A2.289,2.289,0,0,0,85.568,32.956Z" transform="translate(-42.63 -21.221)" fill="#fff"/>
        </g>
      </g>
      <g id="Group_37" data-name="Group 37" transform="translate(38.344 6.997)">
        <g id="Group_34" data-name="Group 34" transform="translate(0 0)">
          <path id="Path_266" data-name="Path 266" d="M311.966,9.235a2.363,2.363,0,0,0-2.638-2.079l-35.723,4.2,4.65-7.757a2.387,2.387,0,0,0-4.091-2.459L267.01,13.058a2.378,2.378,0,0,0-.067,2.347v.022c.022.067.067.112.089.179v.022c.045.045.067.112.112.156v.022c.045.045.089.112.134.156l.045.045,9.546,9.546a2.395,2.395,0,1,0,3.4-3.376l-6.036-6.1,35.656-4.2A2.357,2.357,0,0,0,311.966,9.235Z" transform="translate(-266.666 0)" fill="#fff"/>
        </g>
      </g>
    </g>
    <g id="Group_39" data-name="Group 39" transform="translate(299 160.524)">
      <path id="Path_264" data-name="Path 264" d="M284.965,284.548a15.473,15.473,0,0,0-8.632,2.624,15.526,15.526,0,0,0-23.287-7.762,15.564,15.564,0,0,0-14.655-10.386,15.4,15.4,0,0,0-7.762,2.088V245.736a15.525,15.525,0,1,0-31.05,0v65.981L186.1,301.6a20.35,20.35,0,0,0-26.462,1.879,11.652,11.652,0,0,0,0,16.464l55.277,55.284a34.719,34.719,0,0,0,24.708,10.231H257.8a42.732,42.732,0,0,0,42.686-42.693V300.073A15.541,15.541,0,0,0,284.965,284.548Zm7.77,58.218A34.974,34.974,0,0,1,257.8,377.7H239.617a27,27,0,0,1-19.22-7.957l-55.277-55.284a3.884,3.884,0,0,1,0-5.488,12.572,12.572,0,0,1,16.332-1.157l19.693,14.772a3.877,3.877,0,0,0,6.2-3.1V245.736a7.762,7.762,0,0,1,15.525,0v58.218a3.881,3.881,0,0,0,7.763,0V284.548a7.762,7.762,0,0,1,15.525,0v19.406a3.881,3.881,0,0,0,7.763,0V292.311a7.762,7.762,0,1,1,15.525,0v11.644a3.881,3.881,0,0,0,7.763,0v-3.881a7.762,7.762,0,1,1,15.525,0v42.693Z" transform="translate(-156.227 -230.211)" fill="#fff"/>
    </g>
  </g>
</svg>
