{
	"asset":{
		"version":"2.0",
		"generator":"Created using the official Cinema 4D glTF Exporter 1.000x290161"
	},
	"scenes":[{
		"nodes":[0,
		1,
		2,
		3]
	}],
	"images":[{
		"uri":"data:image/jpeg;base64,"
	},
	{
		"uri":"data:image/jpeg;base64,"
	},
	{
		"uri":"data:image/jpeg;base64,"
	}],
	"nodes":[{
		"name":"leonardo_da_vinci_s_ship_raccordi_metals_ruota_a_90",
		"translation":[-1563.3028564453126,
		3589.4599609375,
		0.0],
		"rotation":[0.0,
		0.0,
		0.0,
		-1.0],
		"scale":[1.0,
		1.0,
		1.0],
		"mesh":0
	},
	{
		"name":"leonardo_da_vinci_s_ship_raccordi_ghiere_ruote_grandi_esterne",
		"translation":[0.3903603255748749,
		3523.763671875,
		0.0],
		"rotation":[0.0,
		0.0,
		0.0,
		-1.0],
		"scale":[1.0,
		1.0,
		1.0],
		"mesh":1
	},
	{
		"name":"leonardo_da_vinci_s_ship_raccordi_metals_anelli_pippoli_3",
		"translation":[-2.0376298427581789,
		5454.58154296875,
		0.0],
		"rotation":[0.0,
		0.0,
		0.0,
		-1.0],
		"scale":[1.0,
		1.0,
		1.0],
		"mesh":2
	},
	{
		"name":"leonardo_da_vinci_s_ship_tiranti_Cubo9",
		"translation":[0.0,
		0.0,
		0.0],
		"rotation":[0.0,
		0.0,
		0.0,
		-1.0],
		"scale":[1.0,
		1.0,
		1.0],
		"mesh":3
	}],
	"meshes":[{
		"primitives":[{
			"attributes":{
				"POSITION":1,
				"TEXCOORD_0":3,
				"NORMAL":2
			},
			"indices":0,
			"material":0
		}]
	},
	{
		"primitives":[{
			"attributes":{
				"POSITION":11,
				"TEXCOORD_0":13,
				"NORMAL":12
			},
			"indices":10,
			"material":0
		}]
	},
	{
		"primitives":[{
			"attributes":{
				"POSITION":21,
				"TEXCOORD_0":23,
				"NORMAL":22
			},
			"indices":20,
			"material":1
		}]
	},
	{
		"primitives":[{
			"attributes":{
				"POSITION":31,
				"TEXCOORD_0":33,
				"NORMAL":32
			},
			"indices":30,
			"material":2
		}]
	}],
	"accessors":[{
		"type":"SCALAR",
		"bufferView":0,
		"componentType":5123,
		"count":6798,
		"byteOffset":0,
		"min":[0],
		"max":[3528]
	},
	{
		"type":"VEC3",
		"bufferView":1,
		"componentType":5126,
		"count":3529,
		"byteOffset":0,
		"min":[-499.3824768066406,
		-973.197509765625,
		-973.1973876953125],
		"max":[1766.0284423828126,
		973.1972045898438,
		973.1970825195313]
	},
	{
		"type":"VEC3",
		"bufferView":1,
		"componentType":5126,
		"count":3529,
		"byteOffset":12,
		"min":[-1.0,
		-0.9998629689216614,
		-0.9998628497123718],
		"max":[1.0,
		0.9998627305030823,
		0.9998629689216614]
	},
	{
		"type":"VEC2",
		"bufferView":1,
		"componentType":5126,
		"count":3529,
		"byteOffset":24,
		"min":[0.0,
		0.0],
		"max":[1.0,
		1.0]
	},
	{
		"type":"SCALAR",
		"bufferView":2,
		"componentType":5126,
		"count":2,
		"byteOffset":0,
		"min":[0.0],
		"max":[8.333333015441895]
	},
	{
		"type":"VEC3",
		"bufferView":2,
		"componentType":5126,
		"count":2,
		"byteOffset":8,
		"min":[-1563.3028564453126,
		3589.4599609375,
		0.0],
		"max":[-1563.3028564453126,
		3589.4599609375,
		0.0]
	},
	{
		"type":"SCALAR",
		"bufferView":3,
		"componentType":5126,
		"count":6,
		"byteOffset":0,
		"min":[0.0],
		"max":[8.333333015441895]
	},
	{
		"type":"VEC4",
		"bufferView":3,
		"componentType":5126,
		"count":6,
		"byteOffset":24,
		"min":[-0.7071067690849304,
		-6.123234262925839e-17,
		0.0,
		-1.0],
		"max":[1.0,
		0.0,
		6.123234262925839e-17,
		-6.123234262925839e-17]
	},
	{
		"type":"SCALAR",
		"bufferView":4,
		"componentType":5126,
		"count":2,
		"byteOffset":0,
		"min":[0.0],
		"max":[8.333333015441895]
	},
	{
		"type":"VEC3",
		"bufferView":4,
		"componentType":5126,
		"count":2,
		"byteOffset":8,
		"min":[1.0,
		1.0,
		1.0],
		"max":[1.0,
		1.0,
		1.0]
	},
	{
		"type":"SCALAR",
		"bufferView":5,
		"componentType":5123,
		"count":55620,
		"byteOffset":0,
		"min":[0],
		"max":[24805]
	},
	{
		"type":"VEC3",
		"bufferView":6,
		"componentType":5126,
		"count":24806,
		"byteOffset":0,
		"min":[-1781.818115234375,
		-1776.6278076171876,
		-1812.7803955078126],
		"max":[1781.818115234375,
		1793.2503662109376,
		1900.9910888671876]
	},
	{
		"type":"VEC3",
		"bufferView":6,
		"componentType":5126,
		"count":24806,
		"byteOffset":12,
		"min":[-1.0,
		-1.0,
		-1.0],
		"max":[1.0,
		1.0,
		1.0]
	},
	{
		"type":"VEC2",
		"bufferView":6,
		"componentType":5126,
		"count":24806,
		"byteOffset":24,
		"min":[0.0,
		0.0],
		"max":[1.0,
		1.0]
	},
	{
		"type":"SCALAR",
		"bufferView":7,
		"componentType":5126,
		"count":3,
		"byteOffset":0,
		"min":[0.0],
		"max":[8.333333015441895]
	},
	{
		"type":"VEC3",
		"bufferView":7,
		"componentType":5126,
		"count":3,
		"byteOffset":12,
		"min":[0.3903603255748749,
		3523.763671875,
		-1.9149719516272507e-13],
		"max":[0.3903603255748749,
		3523.763671875,
		0.0]
	},
	{
		"type":"SCALAR",
		"bufferView":8,
		"componentType":5126,
		"count":6,
		"byteOffset":0,
		"min":[0.0],
		"max":[8.333333015441895]
	},
	{
		"type":"VEC4",
		"bufferView":8,
		"componentType":5126,
		"count":6,
		"byteOffset":24,
		"min":[0.0,
		0.0,
		0.0,
		-1.0],
		"max":[0.0,
		0.0,
		1.0,
		1.0]
	},
	{
		"type":"SCALAR",
		"bufferView":9,
		"componentType":5126,
		"count":3,
		"byteOffset":0,
		"min":[0.0],
		"max":[8.333333015441895]
	},
	{
		"type":"VEC3",
		"bufferView":9,
		"componentType":5126,
		"count":3,
		"byteOffset":12,
		"min":[1.0,
		1.0,
		1.0],
		"max":[1.0,
		1.0,
		1.0]
	},
	{
		"type":"SCALAR",
		"bufferView":10,
		"componentType":5123,
		"count":26178,
		"byteOffset":0,
		"min":[0],
		"max":[11036]
	},
	{
		"type":"VEC3",
		"bufferView":11,
		"componentType":5126,
		"count":11037,
		"byteOffset":0,
		"min":[-8486.0947265625,
		-7384.7568359375,
		-6997.36669921875],
		"max":[8427.5419921875,
		7384.75634765625,
		6958.0556640625]
	},
	{
		"type":"VEC3",
		"bufferView":11,
		"componentType":5126,
		"count":11037,
		"byteOffset":12,
		"min":[-1.0,
		-1.0,
		-1.0],
		"max":[1.0,
		1.0,
		1.0]
	},
	{
		"type":"VEC2",
		"bufferView":11,
		"componentType":5126,
		"count":11037,
		"byteOffset":24,
		"min":[-40.65440368652344,
		-40.65440368652344],
		"max":[41.65440368652344,
		41.65440368652344]
	},
	{
		"type":"SCALAR",
		"bufferView":12,
		"componentType":5126,
		"count":3,
		"byteOffset":0,
		"min":[0.0],
		"max":[8.333333015441895]
	},
	{
		"type":"VEC3",
		"bufferView":12,
		"componentType":5126,
		"count":3,
		"byteOffset":12,
		"min":[-2.0376298427581789,
		5454.58154296875,
		-1.909024967185896e-13],
		"max":[-2.0376298427581789,
		5454.58154296875,
		0.0]
	},
	{
		"type":"SCALAR",
		"bufferView":13,
		"componentType":5126,
		"count":6,
		"byteOffset":0,
		"min":[0.0],
		"max":[8.333333015441895]
	},
	{
		"type":"VEC4",
		"bufferView":13,
		"componentType":5126,
		"count":6,
		"byteOffset":24,
		"min":[0.0,
		0.0,
		0.0,
		-1.0],
		"max":[0.0,
		0.0,
		1.0,
		0.7071067690849304]
	},
	{
		"type":"SCALAR",
		"bufferView":14,
		"componentType":5126,
		"count":3,
		"byteOffset":0,
		"min":[0.0],
		"max":[8.333333015441895]
	},
	{
		"type":"VEC3",
		"bufferView":14,
		"componentType":5126,
		"count":3,
		"byteOffset":12,
		"min":[1.0,
		1.0,
		1.0],
		"max":[1.0,
		1.0,
		1.0]
	},
	{
		"type":"SCALAR",
		"bufferView":15,
		"componentType":5123,
		"count":22665,
		"byteOffset":0,
		"min":[0],
		"max":[5888]
	},
	{
		"type":"VEC3",
		"bufferView":16,
		"componentType":5126,
		"count":5889,
		"byteOffset":0,
		"min":[-13063.1181640625,
		40.39021682739258,
		-4632.24853515625],
		"max":[13020.8125,
		5756.36962890625,
		4632.24853515625]
	},
	{
		"type":"VEC3",
		"bufferView":16,
		"componentType":5126,
		"count":5889,
		"byteOffset":12,
		"min":[-1.0,
		-1.0,
		-1.0],
		"max":[1.0,
		1.0,
		1.0]
	},
	{
		"type":"VEC2",
		"bufferView":16,
		"componentType":5126,
		"count":5889,
		"byteOffset":24,
		"min":[-55.50278091430664,
		-1.703277826309204],
		"max":[56.50278091430664,
		10.725881576538086]
	},
	{
		"type":"SCALAR",
		"bufferView":17,
		"componentType":5126,
		"count":3,
		"byteOffset":0,
		"min":[0.0],
		"max":[8.333333015441895]
	},
	{
		"type":"VEC3",
		"bufferView":17,
		"componentType":5126,
		"count":3,
		"byteOffset":12,
		"min":[0.0,
		-1.6361123952371989e-28,
		-1.91401582083639e-13],
		"max":[1.6361123952371989e-28,
		0.0,
		0.0]
	},
	{
		"type":"SCALAR",
		"bufferView":18,
		"componentType":5126,
		"count":3,
		"byteOffset":0,
		"min":[0.0],
		"max":[8.333333015441895]
	},
	{
		"type":"VEC4",
		"bufferView":18,
		"componentType":5126,
		"count":3,
		"byteOffset":12,
		"min":[0.0,
		0.0,
		0.0,
		-1.0],
		"max":[0.0,
		0.0,
		0.0,
		-1.0]
	},
	{
		"type":"SCALAR",
		"bufferView":19,
		"componentType":5126,
		"count":3,
		"byteOffset":0,
		"min":[0.0],
		"max":[8.333333015441895]
	},
	{
		"type":"VEC3",
		"bufferView":19,
		"componentType":5126,
		"count":3,
		"byteOffset":12,
		"min":[1.0,
		1.0,
		1.0],
		"max":[1.0,
		1.0,
		1.0]
	}],
	"textures":[{
		"sampler":0,
		"source":0
	},
	{
		"sampler":1,
		"source":1
	},
	{
		"sampler":2,
		"source":2
	}],
	"bufferViews":[{
		"buffer":0,
		"byteOffset":0,
		"byteLength":13596,
		"target":34963
	},
	{
		"buffer":0,
		"byteOffset":13596,
		"byteLength":112928,
		"target":34962,
		"byteStride":32
	},
	{
		"buffer":1,
		"byteOffset":0,
		"byteLength":32
	},
	{
		"buffer":1,
		"byteOffset":32,
		"byteLength":120
	},
	{
		"buffer":1,
		"byteOffset":152,
		"byteLength":32
	},
	{
		"buffer":2,
		"byteOffset":0,
		"byteLength":111240,
		"target":34963
	},
	{
		"buffer":2,
		"byteOffset":111240,
		"byteLength":793792,
		"target":34962,
		"byteStride":32
	},
	{
		"buffer":3,
		"byteOffset":0,
		"byteLength":48
	},
	{
		"buffer":3,
		"byteOffset":48,
		"byteLength":120
	},
	{
		"buffer":3,
		"byteOffset":168,
		"byteLength":48
	},
	{
		"buffer":4,
		"byteOffset":0,
		"byteLength":52356,
		"target":34963
	},
	{
		"buffer":4,
		"byteOffset":52356,
		"byteLength":353184,
		"target":34962,
		"byteStride":32
	},
	{
		"buffer":5,
		"byteOffset":0,
		"byteLength":48
	},
	{
		"buffer":5,
		"byteOffset":48,
		"byteLength":120
	},
	{
		"buffer":5,
		"byteOffset":168,
		"byteLength":48
	},
	{
		"buffer":6,
		"byteOffset":0,
		"byteLength":45330,
		"target":34963
	},
	{
		"buffer":6,
		"byteOffset":45332,
		"byteLength":188448,
		"target":34962,
		"byteStride":32
	},
	{
		"buffer":7,
		"byteOffset":0,
		"byteLength":48
	},
	{
		"buffer":7,
		"byteOffset":48,
		"byteLength":60
	},
	{
		"buffer":7,
		"byteOffset":108,
		"byteLength":48
	}],
	"buffers":[{
		"uri":"data:application/octet-stream;base64,",
		"byteLength":126524
	},
	{
		"uri":"data:application/octet-stream;base64,",
		"byteLength":184
	},
	{
		"uri":"data:application/octet-stream;base64,",
		"byteLength":905032
	},
	{
		"uri":"data:application/octet-stream;base64,",
		"byteLength":216
	},
	{
		"uri":"data:application/octet-stream;base64,",
		"byteLength":405540
	},
	{
		"uri":"data:application/octet-stream;base64,",
		"byteLength":216
	},
	{
		"uri":"data:application/octet-stream;base64,",
		"byteLength":233780
	},
	{
		"uri":"data:application/octet-stream;base64,",
		"byteLength":156
	}],
	"samplers":[{
		"magFilter":9729,
		"minFilter":9729,
		"wrapS":10497,
		"wrapT":10497
	},
	{
		"magFilter":9729,
		"minFilter":9729,
		"wrapS":10497,
		"wrapT":10497
	},
	{
		"magFilter":9729,
		"minFilter":9729,
		"wrapS":10497,
		"wrapT":10497
	}],
	"materials":[{
		"pbrMetallicRoughness":{
			"metallicFactor":0.0,
			"baseColorTexture":{
				"index":0
			},
			"baseColorFactor":[1.0,
			1.0,
			1.0,
			1.0],
			"roughnessFactor":0.5
		},
		"emissiveFactor":[0.0,
		0.0,
		0.0],
		"alphaMode":"OPAQUE",
		"doubleSided":false,
		"name":"rusty_dark"
	},
	{
		"pbrMetallicRoughness":{
			"metallicFactor":0.0,
			"baseColorTexture":{
				"index":1
			},
			"baseColorFactor":[1.0,
			1.0,
			1.0,
			1.0],
			"roughnessFactor":0.5
		},
		"emissiveFactor":[0.0,
		0.0,
		0.0],
		"alphaMode":"OPAQUE",
		"doubleSided":false,
		"name":"Nuovo"
	},
	{
		"pbrMetallicRoughness":{
			"metallicFactor":0.0,
			"baseColorTexture":{
				"index":2
			},
			"baseColorFactor":[1.0,
			1.0,
			1.0,
			1.0],
			"roughnessFactor":0.5
		},
		"emissiveFactor":[0.0,
		0.0,
		0.0],
		"alphaMode":"OPAQUE",
		"doubleSided":false,
		"name":"Nuovo_1"
	}],
	"animations":[{
		"samplers":[{
			"input":4,
			"interpolation":"LINEAR",
			"output":5
		},
		{
			"input":6,
			"interpolation":"LINEAR",
			"output":7
		},
		{
			"input":8,
			"interpolation":"LINEAR",
			"output":9
		},
		{
			"input":14,
			"interpolation":"LINEAR",
			"output":15
		},
		{
			"input":16,
			"interpolation":"LINEAR",
			"output":17
		},
		{
			"input":18,
			"interpolation":"LINEAR",
			"output":19
		},
		{
			"input":24,
			"interpolation":"LINEAR",
			"output":25
		},
		{
			"input":26,
			"interpolation":"LINEAR",
			"output":27
		},
		{
			"input":28,
			"interpolation":"LINEAR",
			"output":29
		},
		{
			"input":34,
			"interpolation":"LINEAR",
			"output":35
		},
		{
			"input":36,
			"interpolation":"LINEAR",
			"output":37
		},
		{
			"input":38,
			"interpolation":"LINEAR",
			"output":39
		}],
		"channels":[{
			"sampler":0,
			"target":{
				"node":0,
				"path":"translation"
			}
		},
		{
			"sampler":1,
			"target":{
				"node":0,
				"path":"rotation"
			}
		},
		{
			"sampler":2,
			"target":{
				"node":0,
				"path":"scale"
			}
		},
		{
			"sampler":3,
			"target":{
				"node":1,
				"path":"translation"
			}
		},
		{
			"sampler":4,
			"target":{
				"node":1,
				"path":"rotation"
			}
		},
		{
			"sampler":5,
			"target":{
				"node":1,
				"path":"scale"
			}
		},
		{
			"sampler":6,
			"target":{
				"node":2,
				"path":"translation"
			}
		},
		{
			"sampler":7,
			"target":{
				"node":2,
				"path":"rotation"
			}
		},
		{
			"sampler":8,
			"target":{
				"node":2,
				"path":"scale"
			}
		},
		{
			"sampler":9,
			"target":{
				"node":3,
				"path":"translation"
			}
		},
		{
			"sampler":10,
			"target":{
				"node":3,
				"path":"rotation"
			}
		},
		{
			"sampler":11,
			"target":{
				"node":3,
				"path":"scale"
			}
		}]
	}]
}