<svg xmlns="http://www.w3.org/2000/svg" viewBox="0 0 181.04 30.75"><defs><style>.cls-1,.cls-3{fill:#fff;}.cls-2{fill:#231f20;}.cls-3{fill-rule:evenodd;}</style></defs><g id="Layer_2" data-name="Layer 2"><g id="Layer_3" data-name="Layer 3"><path class="cls-1" d="M42.79,10.2h-.66v3.26h.66a.55.55,0,0,0,.54-.55V10.74A.54.54,0,0,0,42.79,10.2Zm-1.23,5.05h-.18a.54.54,0,0,0-.54.54v2.29a.54.54,0,0,0,.54.54h.18a.54.54,0,0,0,.54-.54V15.79A.54.54,0,0,0,41.56,15.25Zm-7.71,0h-.18a.54.54,0,0,0-.54.54v2.29a.54.54,0,0,0,.54.54h.18a.54.54,0,0,0,.54-.54V15.79A.54.54,0,0,0,33.85,15.25Zm-2.93.06h-.65v3.25h.65a.53.53,0,0,0,.54-.54V15.85A.53.53,0,0,0,30.92,15.31ZM45.58,10.2l-.5,1.93h1.09l-.5-1.93ZM23.12,9V19.72H74.7V9Zm3.95,6.21a.06.06,0,0,1-.06.06h-1.5v1.44h1.38a.06.06,0,0,1,.06.06v.24a.06.06,0,0,1-.06.06H25.51v1.45H27a.05.05,0,0,1,.06.06v.24a.06.06,0,0,1-.06.06h-1.8a.06.06,0,0,1-.06-.06V15a.06.06,0,0,1,.06-.06H27a.06.06,0,0,1,.06.06Zm.48-1.5a.05.05,0,0,1-.06.06h-.24s-.05,0-.05-.06v-3c0-.14,0-.44,0-.44h-.11a3,3,0,0,1-.09.44l-.48,1.35s0,0-.05,0h-.29a.08.08,0,0,1-.06,0l-.48-1.35a3,3,0,0,1-.09-.44h-.1s0,.3,0,.44v3s0,.06-.05.06h-.24a.06.06,0,0,1-.06-.06V9.9a.06.06,0,0,1,.06-.05h.49a.09.09,0,0,1,.06,0l.54,1.59a2.14,2.14,0,0,1,.05.29,2.14,2.14,0,0,1,0-.29l.54-1.59a.09.09,0,0,1,.06,0h.49s.06,0,.06.05Zm1.9.12a.9.9,0,0,1-.9-.9V9.9a.06.06,0,0,1,.06-.05h.24a.06.06,0,0,1,.06.05V13a.54.54,0,0,0,.54.54h.13a.54.54,0,0,0,.54-.54V9.9s0-.05.06-.05h.24a.06.06,0,0,1,.06.05V13a.9.9,0,0,1-.9.9ZM31.83,18a.91.91,0,0,1-.91.9H30a.06.06,0,0,1-.05-.06V15A.06.06,0,0,1,30,15h1a.9.9,0,0,1,.91.9Zm.4-4.15a.9.9,0,0,1-.91-.9v-.12a.06.06,0,0,1,.06-.06h.24a.06.06,0,0,1,.06.06V13a.54.54,0,0,0,.55.54h.23A.55.55,0,0,0,33,13v-.18c0-.93-1.63-.76-1.63-1.92v-.19a.91.91,0,0,1,.9-.9h.12a.91.91,0,0,1,.91.9v.12a.08.08,0,0,1-.07.07H33a.08.08,0,0,1-.07-.07v-.12a.54.54,0,0,0-.54-.54h-.12a.55.55,0,0,0-.54.54v.19c0,.87,1.62.72,1.62,1.92V13a.9.9,0,0,1-.9.9Zm2.53,4.21a.9.9,0,0,1-.91.9h-.18a.9.9,0,0,1-.91-.9V15.79a.9.9,0,0,1,.91-.9h.18a.9.9,0,0,1,.91.9Zm1.43-7.94s0,.06,0,.06H34.63v1.45H36a.06.06,0,0,1,.06.06V12A.06.06,0,0,1,36,12H34.63v1.45h1.51a0,0,0,0,1,0,0v.24a.06.06,0,0,1,0,.06H34.33a.06.06,0,0,1-.06-.06V9.9a.06.06,0,0,1,.06-.05h1.81a0,0,0,0,1,0,.05ZM37,13V9.9a.06.06,0,0,1,.06-.05h.24a.06.06,0,0,1,.06.05V13a.54.54,0,0,0,.54.54h.12A.54.54,0,0,0,38.6,13V9.9a.06.06,0,0,1,.06-.05h.24s.06,0,.06.05V13a.9.9,0,0,1-.9.9h-.12A.9.9,0,0,1,37,13Zm2.51,5.11a.9.9,0,0,1-.91.9h-.23a.9.9,0,0,1-.9-.9V18s0-.06.05-.06h.24a.05.05,0,0,1,.06.06v.12a.55.55,0,0,0,.55.54h.23a.55.55,0,0,0,.55-.54V17.9c0-.94-1.63-.77-1.63-1.93v-.18a.9.9,0,0,1,.91-.9h.12a.9.9,0,0,1,.9.9v.12a.06.06,0,0,1-.06.06h-.24a.06.06,0,0,1-.06-.06v-.12a.54.54,0,0,0-.54-.54h-.12a.55.55,0,0,0-.55.54V16c0,.88,1.63.72,1.63,1.93Zm2.91,0a.9.9,0,0,1-.9.9h-.18a.9.9,0,0,1-.91-.9V15.79a.9.9,0,0,1,.91-.9h.18a.9.9,0,0,1,.9.9Zm.33-4.27h-1a.06.06,0,0,1,0-.06V9.9a.05.05,0,0,1,0-.05h1a.9.9,0,0,1,.9.89v2.17A.9.9,0,0,1,42.79,13.81Zm3,5a.06.06,0,0,1-.06.06h-.24a.06.06,0,0,1-.05-.06v-3c0-.14,0-.44,0-.44H45.4a3,3,0,0,1-.09.44l-.48,1.35s0,0,0,0h-.29s-.05,0-.06,0L44,15.85a3,3,0,0,1-.09-.44h-.1s0,.3,0,.44v3a.06.06,0,0,1-.05.06h-.24a.06.06,0,0,1-.06-.06V15a.06.06,0,0,1,.06-.06H44S44,15,44,15l.54,1.58a2.14,2.14,0,0,1,.05.29,2.14,2.14,0,0,1,0-.29L45.22,15s0,0,.06,0h.49a.06.06,0,0,1,.06.06Zm.75-5.11a.06.06,0,0,1-.06.06h-.24a.06.06,0,0,1-.06-.06V12.49H45v1.26a.06.06,0,0,1-.06.06h-.24a.06.06,0,0,1-.06-.06V12.28l.63-2.39s0,0,.06,0h.54a.08.08,0,0,1,.07,0l.62,2.39Zm4.83,0a.06.06,0,0,1-.06.06H49.43a.06.06,0,0,1-.06-.06v-.24s0,0,.06,0h.78V10.2h-.72a.05.05,0,0,1-.06-.06V9.9s0-.05.06-.05h1.8a.06.06,0,0,1,.06.05v.24a.06.06,0,0,1-.06.06h-.72v3.26h.78s.06,0,.06,0Zm3.12,0a.06.06,0,0,1-.06.06h-.24a.06.06,0,0,1,0-.06v-3c0-.14,0-.44,0-.44h-.1a3,3,0,0,1-.09.44l-.48,1.35a.08.08,0,0,1-.06,0h-.29s0,0,0,0l-.48-1.35a3,3,0,0,1-.09-.44h-.11s0,.3,0,.44v3a.06.06,0,0,1,0,.06h-.24a.06.06,0,0,1-.06-.06V9.9s0-.05.06-.05h.49a.09.09,0,0,1,.06,0l.54,1.59a2.14,2.14,0,0,1,0,.29,2.14,2.14,0,0,1,.05-.29l.54-1.59a.09.09,0,0,1,.06,0h.49a.06.06,0,0,1,.06.05Zm2.81,0a.06.06,0,0,1-.06.06H57a.06.06,0,0,1-.06-.06V12.49h-1.2v1.26a.06.06,0,0,1-.06.06h-.24a.06.06,0,0,1-.06-.06V12.28l.63-2.39s0,0,.06,0h.54a.08.08,0,0,1,.07,0l.62,2.39Zm3-2.94a.07.07,0,0,1-.07.06H60a.06.06,0,0,1-.06-.06v-.13a.54.54,0,0,0-.54-.54h-.18a.54.54,0,0,0-.54.54V13a.54.54,0,0,0,.54.54h.18A.54.54,0,0,0,60,13V12h-.59a.07.07,0,0,1-.07-.06v-.24s0-.06.07-.06h.89s.07,0,.07.06V13a.9.9,0,0,1-.91.9h-.18a.9.9,0,0,1-.9-.9V10.68a.89.89,0,0,1,.9-.89h.18a.9.9,0,0,1,.91.89Zm3-.67s0,.06-.05.06H61.72v1.45H63.1a.06.06,0,0,1,.06.06V12a.06.06,0,0,1-.06.06H61.72v1.45h1.51a0,0,0,0,1,.05,0v.24a.06.06,0,0,1-.05.06H61.42a.06.06,0,0,1-.06-.06V9.9a.06.06,0,0,1,.06-.05h1.81a0,0,0,0,1,.05.05Zm3.24,3.61a.06.06,0,0,1-.06.06h-.24a.06.06,0,0,1-.06-.06v-3c0-.14,0-.44,0-.44h-.11a3,3,0,0,1-.09.44l-.47,1.35a.08.08,0,0,1-.06,0h-.29a.08.08,0,0,1-.06,0l-.48-1.35a2.6,2.6,0,0,1-.08-.44h-.11s0,.3,0,.44v3a.06.06,0,0,1-.06.06h-.24a.06.06,0,0,1-.06-.06V9.9a.06.06,0,0,1,.06-.05h.5s0,0,0,0l.54,1.59a1.2,1.2,0,0,1,0,.29,2.14,2.14,0,0,1,0-.29l.55-1.59s0,0,0,0h.5a.06.06,0,0,1,.06.05ZM56.34,10.2l-.51,1.93h1.1l-.5-1.93Z"/><path class="cls-1" d="M16.3,19.82a2.69,2.69,0,0,1-2.69-2.68h0v-.29a.65.65,0,0,1,.65-.64h.59a.65.65,0,0,1,.64.64h0v.29a.82.82,0,0,0,.81.82h.58a.82.82,0,0,0,.81-.82h0V16.7c0-.82-.84-1.22-1.86-1.77h0a3.17,3.17,0,0,1-2.06-2.88h0v-.44a2.68,2.68,0,0,1,2.67-2.67h.3a2.68,2.68,0,0,1,2.67,2.67h0v.29a.64.64,0,0,1-.64.64h-.58a.64.64,0,0,1-.64-.64h0v-.29a.81.81,0,0,0-.81-.81h-.3a.81.81,0,0,0-.81.81h0v.44c0,.73.84,1.12,1.86,1.68h0a3.26,3.26,0,0,1,2.07,3h0v.44a2.68,2.68,0,0,1-2.68,2.68H16.3Z"/><path class="cls-1" d="M9,19.67A.63.63,0,0,1,8.33,19h0v-.58A.64.64,0,0,1,9,17.81h.75V11h-.6a.65.65,0,0,1-.64-.65h0V9.72a.64.64,0,0,1,.64-.63h3.06a.64.64,0,0,1,.64.63h0v.58a.65.65,0,0,1-.64.65h-.6v6.86h.75a.64.64,0,0,1,.64.64h0V19a.64.64,0,0,1-.64.64H9Z"/><path class="cls-1" d="M5.94,19.67A.63.63,0,0,1,5.3,19h0V13l-.75,2.18a.65.65,0,0,1-.6.43H3.21a.67.67,0,0,1-.61-.43h0L1.86,13v6a.64.64,0,0,1-.64.64H.64A.64.64,0,0,1,0,19H0V9.71a.63.63,0,0,1,.64-.62H1.86a.62.62,0,0,1,.59.41h0l1.13,3.2L4.7,9.51a.62.62,0,0,1,.59-.42H6.51a.64.64,0,0,1,.65.62h0V19a.64.64,0,0,1-.65.64H5.94Z"/><path class="cls-1" d="M25.53,28.83a2.24,2.24,0,0,1-1.76-.74,2.77,2.77,0,0,1-.65-1.9V26a2.68,2.68,0,0,1,.67-1.87,2.08,2.08,0,0,1,1.59-.75A2,2,0,0,1,27,24a2.56,2.56,0,0,1,.55,1.72v.6H24.12l0,0a2.1,2.1,0,0,0,.39,1.26,1.23,1.23,0,0,0,1,.49,2.44,2.44,0,0,0,.85-.14,2,2,0,0,0,.64-.39l.37.63a2.34,2.34,0,0,1-.75.46A3.06,3.06,0,0,1,25.53,28.83Zm-.15-4.72a1.05,1.05,0,0,0-.83.4,2.09,2.09,0,0,0-.42,1v0h2.44v-.13a1.47,1.47,0,0,0-.3-.94A1.07,1.07,0,0,0,25.38,24.11Z"/><path class="cls-1" d="M28.35,28.11l.57-.11,1.56-1.94L29,24.18l-.57-.11v-.62h2.07v.62l-.48.06,1,1.26,1-1.27-.47-.05v-.62h2.08v.62l-.57.11-1.5,1.88L33.06,28l.57.11v.62H31.56v-.62l.47-.05-1-1.33-1,1.33.47.05v.62H28.35Z"/><path class="cls-1" d="M34.18,30.13,35,30V24.2l-.8-.13v-.62H35.8l.09.64a1.86,1.86,0,0,1,.64-.55,1.9,1.9,0,0,1,.88-.19,1.75,1.75,0,0,1,1.52.78,3.53,3.53,0,0,1,.55,2.05v.11a2.94,2.94,0,0,1-.55,1.84,1.82,1.82,0,0,1-1.51.7,2,2,0,0,1-.85-.17,1.56,1.56,0,0,1-.63-.48V30l.79.13v.62H34.18Zm4.33-3.95a2.81,2.81,0,0,0-.35-1.47,1.13,1.13,0,0,0-1-.58,1.26,1.26,0,0,0-.71.19,1.41,1.41,0,0,0-.47.5v2.57a1.37,1.37,0,0,0,.47.51,1.33,1.33,0,0,0,.72.18,1.18,1.18,0,0,0,1-.5,2.21,2.21,0,0,0,.35-1.29Z"/><path class="cls-1" d="M42.76,28.83A2.21,2.21,0,0,1,41,28.09a2.73,2.73,0,0,1-.66-1.9V26A2.69,2.69,0,0,1,41,24.1a2,2,0,0,1,1.58-.75,2,2,0,0,1,1.62.64,2.6,2.6,0,0,1,.54,1.72v.6H41.35l0,0a2.1,2.1,0,0,0,.39,1.26,1.25,1.25,0,0,0,1,.49,2.54,2.54,0,0,0,.86-.14,2,2,0,0,0,.63-.39l.38.63a2.46,2.46,0,0,1-.75.46A3.12,3.12,0,0,1,42.76,28.83Zm-.15-4.72a1,1,0,0,0-.82.4,1.92,1.92,0,0,0-.42,1v0h2.43v-.13a1.47,1.47,0,0,0-.3-.94A1.06,1.06,0,0,0,42.61,24.11Z"/><path class="cls-1" d="M45.72,24.07v-.62h1.65l.1.76a1.79,1.79,0,0,1,.55-.63,1.3,1.3,0,0,1,.75-.23l.24,0,.18,0-.13.9-.54,0a1.15,1.15,0,0,0-.64.17,1.1,1.1,0,0,0-.4.5v3l.79.14v.62H45.72v-.62l.8-.14V24.2Z"/><path class="cls-1" d="M49.85,28.11l.8-.14V24.2l-.8-.13v-.62h1.76V28l.79.14v.62H49.85Zm1.76-6h-1v-1h1Z"/><path class="cls-1" d="M55.54,28.83a2.22,2.22,0,0,1-1.75-.74,2.77,2.77,0,0,1-.65-1.9V26a2.68,2.68,0,0,1,.67-1.87,2.08,2.08,0,0,1,1.59-.75A2,2,0,0,1,57,24a2.56,2.56,0,0,1,.55,1.72v.6H54.13v0a2.1,2.1,0,0,0,.39,1.26,1.23,1.23,0,0,0,1,.49,2.46,2.46,0,0,0,.86-.14,2,2,0,0,0,.64-.39l.37.63a2.46,2.46,0,0,1-.75.46A3.08,3.08,0,0,1,55.54,28.83Zm-.14-4.72a1.05,1.05,0,0,0-.83.4,2.09,2.09,0,0,0-.42,1v0H56.6v-.13a1.47,1.47,0,0,0-.3-.94A1.07,1.07,0,0,0,55.4,24.11Z"/><path class="cls-1" d="M58.36,28.11l.8-.14V24.2l-.8-.13v-.62H60l.07.78a1.87,1.87,0,0,1,.66-.65,1.77,1.77,0,0,1,.9-.23,1.73,1.73,0,0,1,1.32.5,2.15,2.15,0,0,1,.47,1.54V28l.8.14v.62H61.69v-.62l.79-.14V25.41a1.47,1.47,0,0,0-.27-1,1.15,1.15,0,0,0-.85-.29,1.38,1.38,0,0,0-.73.2,1.5,1.5,0,0,0-.51.55V28l.8.14v.62H58.36Z"/><path class="cls-1" d="M67.26,28.08a1.27,1.27,0,0,0,.84-.3.91.91,0,0,0,.36-.72h.87v0a1.46,1.46,0,0,1-.6,1.21,2.23,2.23,0,0,1-1.47.53,2.12,2.12,0,0,1-1.76-.75,2.88,2.88,0,0,1-.61-1.89V26a2.89,2.89,0,0,1,.61-1.88,2.14,2.14,0,0,1,1.76-.75,3,3,0,0,1,1.14.21,2.36,2.36,0,0,1,.83.57l0,1.18h-.77l-.21-.83a1.27,1.27,0,0,0-.44-.27,1.64,1.64,0,0,0-.6-.1,1.15,1.15,0,0,0-1.08.54A2.52,2.52,0,0,0,65.85,26v.21a2.64,2.64,0,0,0,.32,1.35A1.17,1.17,0,0,0,67.26,28.08Z"/><path class="cls-1" d="M72.68,28.83a2.22,2.22,0,0,1-1.75-.74,2.72,2.72,0,0,1-.65-1.9V26A2.68,2.68,0,0,1,71,24.1a2,2,0,0,1,1.58-.75,2,2,0,0,1,1.62.64,2.61,2.61,0,0,1,.55,1.72v.6H71.27v0a2.1,2.1,0,0,0,.38,1.26,1.26,1.26,0,0,0,1,.49,2.5,2.5,0,0,0,.86-.14,1.92,1.92,0,0,0,.63-.39l.38.63a2.46,2.46,0,0,1-.75.46A3.08,3.08,0,0,1,72.68,28.83Zm-.15-4.72a1,1,0,0,0-.82.4,1.92,1.92,0,0,0-.42,1v0h2.43v-.13a1.47,1.47,0,0,0-.3-.94A1.06,1.06,0,0,0,72.53,24.11Z"/><path class="cls-2" d="M135.78,7.16l.18.16s-.09-.28-.11-.38v0l.13-.46s-.09.14-.15.25c0-.1,0-.2,0-.2s0,.18-.06.34a2,2,0,0,0-.1.19l.06,0c0,.19-.08.68-.08.68Z"/><path class="cls-2" d="M135.93,8.67c0-.17-.05-.31-.05-.31l-.06.49-.14.3.11,0h0c0,.18-.06.7-.06.7l.18-.66.16.07s0-.17-.08-.37l.16-.59-.22.32"/><path class="cls-1" d="M112.12,19.62c0-1.86-1.42-2.6-3.72-3.1-1.38-.31-1.72-.51-1.72-1v0c0-.35.33-.64,1-.64a5,5,0,0,1,2.79,1l1.38-1.95a6.27,6.27,0,0,0-4.1-1.32c-2.4,0-3.86,1.34-3.86,3.19v0c0,2,1.63,2.65,3.76,3.13,1.35.31,1.68.54,1.68,1v0c0,.43-.4.69-1.14.69a5.18,5.18,0,0,1-3.24-1.2l-1.53,1.84a6.93,6.93,0,0,0,4.67,1.65c2.42,0,4-1.21,4-3.25Z"/><path class="cls-1" d="M116.39,11.38a20.48,20.48,0,0,0,2.35.55c1,0,1.48-.7,1.78-2.11l-1.3-.35c-.18.44-.34.65-.74.65a22.14,22.14,0,0,0-2.35-.55c-1,0-1.48.71-1.8,2.12l1.3.36c.19-.46.36-.67.76-.67"/><path class="cls-1" d="M116,12.69l-4.24,10h2.91l.71-1.78h3.84l.73,1.78h3l-4.24-10Zm.19,6.11L117.35,16l1.12,2.84Z"/><path class="cls-1" d="M127.39,12.56A5.22,5.22,0,0,0,122,17.74v0a5.37,5.37,0,0,0,10.74,0v0a5.17,5.17,0,0,0-5.35-5.16m2.53,5.21a2.55,2.55,0,0,1-2.53,2.67,2.59,2.59,0,0,1-2.55-2.7v0a2.54,2.54,0,0,1,2.52-2.67,2.59,2.59,0,0,1,2.56,2.69Z"/><path class="cls-1" d="M135.45,12.69h4.27c2.52,0,4.15,1.29,4.15,3.5v0c0,2.35-1.81,3.59-4.29,3.59h-1.37v2.92h-2.76Zm4.07,5c1,0,1.58-.52,1.58-1.3v0c0-.85-.6-1.31-1.59-1.31h-1.3v2.64Z"/><path class="cls-1" d="M146.42,12.68h2.66l4.25,10h-3l-.72-1.78h-3.85l-.71,1.78h-2.91Zm2.42,6.11L147.73,16l-1.13,2.83Z"/><path class="cls-1" d="M152.72,18.29v-5.6h2.8v5.54c0,1.44.73,2.12,1.84,2.12s1.84-.65,1.84-2.05V12.69H162v5.52c0,3.22-1.83,4.63-4.67,4.63s-4.61-1.43-4.61-4.55"/><polygon class="cls-1" points="162.65 12.69 165.41 12.69 165.41 20.3 170.24 20.3 170.24 22.72 162.65 22.72 162.65 12.69"/><path class="cls-1" d="M170.3,17.7v0a5.37,5.37,0,0,1,10.74,0v0a5.23,5.23,0,0,1-5.39,5.19,5.17,5.17,0,0,1-5.35-5.16m7.92,0v0A2.59,2.59,0,0,0,175.65,15a2.54,2.54,0,0,0-2.52,2.67v0a2.59,2.59,0,0,0,2.55,2.7,2.55,2.55,0,0,0,2.54-2.67"/><path class="cls-1" d="M106,27.12h1.09v.71a1.8,1.8,0,0,1-1,.29,1.47,1.47,0,0,1-1.49-1.56h0A1.48,1.48,0,0,1,106,25a1.85,1.85,0,0,1,1.29.5l.68-.82A2.68,2.68,0,0,0,106,24a2.53,2.53,0,0,0-2.58,2.55h0A2.46,2.46,0,0,0,106,29.11a3.22,3.22,0,0,0,2.11-.79V26.19H106Z"/><path class="cls-1" d="M111.36,24a2.54,2.54,0,0,0-2.62,2.54v0a2.62,2.62,0,0,0,5.23,0h0A2.52,2.52,0,0,0,111.36,24m1.48,2.56a1.47,1.47,0,0,1-1.48,1.53,1.5,1.5,0,0,1-1.49-1.55h0A1.48,1.48,0,0,1,111.35,25a1.5,1.5,0,0,1,1.49,1.55Z"/><polygon class="cls-1" points="116.36 27.54 115.07 24.1 113.87 24.1 115.86 29.02 116.82 29.02 118.81 24.1 117.64 24.1 116.36 27.54"/><path class="cls-1" d="M127.85,25.74v0a1.55,1.55,0,0,0-.42-1.12,2,2,0,0,0-1.44-.5h-2.25V29h1.08V27.44h.86l1,1.58H128l-1.21-1.76a1.52,1.52,0,0,0,1.06-1.52m-1.1.05c0,.42-.3.7-.83.7h-1.1V25.07h1.08c.53,0,.85.24.85.71Z"/><polygon class="cls-1" points="131.83 27.13 129.53 24.1 128.53 24.1 128.53 29.02 129.6 29.02 129.6 25.89 131.98 29.02 132.9 29.02 132.9 24.1 131.83 24.1 131.83 27.13"/><path class="cls-1" d="M136.16,24a2.54,2.54,0,0,0-2.62,2.54v0a2.52,2.52,0,0,0,2.61,2.53,2.55,2.55,0,0,0,2.62-2.55h0A2.52,2.52,0,0,0,136.16,24m1.48,2.56a1.48,1.48,0,0,1-1.48,1.53,1.49,1.49,0,0,1-1.49-1.55h0A1.46,1.46,0,0,1,136.15,25a1.49,1.49,0,0,1,1.49,1.54Z"/><polygon class="cls-1" points="154.09 27.02 156.42 27.02 156.42 26.06 154.09 26.06 154.09 25.06 156.73 25.06 156.73 24.1 153.02 24.1 153.02 29.02 156.77 29.02 156.77 28.06 154.09 28.06 154.09 27.02"/><path class="cls-1" d="M159.49,26.08c-.85-.22-1.06-.33-1.06-.65v0c0-.23.22-.42.63-.42a2.32,2.32,0,0,1,1.28.48l.56-.81a2.8,2.8,0,0,0-1.83-.63,1.54,1.54,0,0,0-1.72,1.48v0c0,1,.64,1.25,1.63,1.5.83.21,1,.35,1,.63h0c0,.29-.26.47-.71.47a2.31,2.31,0,0,1-1.47-.6l-.64.76a3.15,3.15,0,0,0,2.09.79c1.07,0,1.81-.55,1.81-1.52v0c0-.86-.56-1.21-1.56-1.47"/><polygon class="cls-1" points="165.54 24.09 161.46 24.09 161.46 25.09 162.96 25.09 162.96 29.02 164.04 29.02 164.04 25.09 165.54 25.09 165.54 24.09"/><path class="cls-1" d="M166.84,24.1,164.75,29h1.11l.45-1.1h2.08l.45,1.1H170l-2.09-4.91ZM166.69,27l.66-1.59L168,27Z"/><path class="cls-1" d="M172.6,24.1h-1.92V29h1.92a2.46,2.46,0,0,0,2.62-2.46h0a2.45,2.45,0,0,0-2.62-2.44m1.48,2.47A1.4,1.4,0,0,1,172.6,28h-.84v-3h.84a1.41,1.41,0,0,1,1.48,1.48Z"/><path class="cls-1" d="M178.43,24a2.54,2.54,0,0,0-2.62,2.54v0a2.62,2.62,0,0,0,5.23,0h0A2.52,2.52,0,0,0,178.43,24m1.48,2.56a1.48,1.48,0,0,1-1.48,1.53,1.5,1.5,0,0,1-1.49-1.55h0A1.48,1.48,0,0,1,178.42,25a1.5,1.5,0,0,1,1.49,1.55Z"/><polygon class="cls-1" points="120.47 27.02 122.79 27.02 122.79 26.06 120.47 26.06 120.47 25.06 123.11 25.06 123.11 24.1 119.4 24.1 119.4 29.02 123.14 29.02 123.14 28.05 120.47 28.05 120.47 27.02"/><path class="cls-1" d="M142.61,24.1h-1.92V29h1.92a2.46,2.46,0,0,0,2.62-2.45v0a2.45,2.45,0,0,0-2.62-2.44m1.49,2.47A1.41,1.41,0,0,1,142.61,28h-.83v-3h.83a1.42,1.42,0,0,1,1.49,1.49Z"/><path class="cls-1" d="M148.49,24a2.55,2.55,0,0,0-2.63,2.55h0a2.62,2.62,0,0,0,5.24,0h0A2.53,2.53,0,0,0,148.49,24M150,26.57a1.47,1.47,0,0,1-1.47,1.54,1.5,1.5,0,0,1-1.5-1.55h0A1.48,1.48,0,0,1,148.47,25,1.5,1.5,0,0,1,150,26.56Z"/><path class="cls-2" d="M152,1.86c-1.37,1.48-3.68,1.75-6,1.85-1.2.07-2.41.09-3.62.19-2.26.18-4.58.48-6,2A4.49,4.49,0,0,0,135.77,7a4.06,4.06,0,0,0-.32,1.69v.92a4,4,0,0,1,.32-1.69,4.3,4.3,0,0,1,.72-1.09c1.38-1.49,3.7-1.79,6-2,1.2-.09,2.41-.12,3.61-.18,2.27-.1,4.58-.37,6-1.86a3.89,3.89,0,0,0,.68-1V.85a4.26,4.26,0,0,1-.68,1"/><path class="cls-2" d="M152,3.62c-1.37,1.49-3.67,1.69-6,1.79-1.21.07-2.41.15-3.61.25-2.27.18-4.59.49-6,2a4.24,4.24,0,0,0-.72,1.08,4.08,4.08,0,0,0-.32,1.7v.91a4.06,4.06,0,0,1,.32-1.69,4.49,4.49,0,0,1,.72-1.09c1.38-1.49,3.7-1.79,6-2,1.21-.1,2.4-.18,3.61-.25,2.27-.1,4.58-.31,6-1.8a4,4,0,0,0,.68-1V2.61a4.06,4.06,0,0,1-.68,1"/><path class="cls-2" d="M152,5.38c-1.37,1.49-3.66,1.76-6,1.86-1.21.06-2.4.09-3.61.18-2.27.19-4.59.49-6,2a4.49,4.49,0,0,0-.72,1.09,4,4,0,0,0-.32,1.69v.92a4,4,0,0,1,.32-1.69,4.13,4.13,0,0,1,.72-1.09c1.38-1.49,3.7-1.79,6-2,1.21-.1,2.4-.12,3.61-.18,2.28-.11,4.58-.37,6-1.86a4.06,4.06,0,0,0,.68-1V4.37a4.06,4.06,0,0,1-.68,1"/><path class="cls-2" d="M152,8.91c-1.37,1.49-3.67,1.76-6,1.86-1.21.06-2.4.09-3.61.18-2.27.19-4.59.49-6,2a4.13,4.13,0,0,0-.72,1.09,4,4,0,0,0-.32,1.69v.92a4.08,4.08,0,0,1,.32-1.7,4.24,4.24,0,0,1,.72-1.08c1.38-1.49,3.7-1.8,6-2,1.21-.1,2.4-.12,3.61-.19,2.27-.1,4.58-.37,6-1.86a4,4,0,0,0,.68-1V7.9a4.06,4.06,0,0,1-.68,1"/><path class="cls-2" d="M152,10.67c-1.37,1.49-3.67,1.76-6,1.86-1.21.07-2.4.09-3.61.19-2.27.18-4.59.48-6,2a4.49,4.49,0,0,0-.72,1.09,4.06,4.06,0,0,0-.32,1.69v.92a4,4,0,0,1,.32-1.69,4.3,4.3,0,0,1,.72-1.09c1.38-1.49,3.7-1.79,6-2,1.21-.09,2.4-.12,3.61-.18,2.28-.1,4.58-.37,6-1.86a4.06,4.06,0,0,0,.68-1V9.66a4.06,4.06,0,0,1-.68,1"/><path class="cls-1" d="M152,1c-1.37,1.49-3.68,1.84-6,1.94-.13,0-2.54.1-3.62.18-2.26.19-4.59.49-6,2a4.49,4.49,0,0,0-.72,1.09,4,4,0,0,0-.32,1.69v.76A4.06,4.06,0,0,1,135.77,7a4.49,4.49,0,0,1,.72-1.09c1.38-1.49,3.7-1.79,6-2,1.21-.1,2.42-.12,3.62-.19,2.3-.1,4.58-.37,6-1.85a4.26,4.26,0,0,0,.68-1V0A4.06,4.06,0,0,1,152,1"/><path class="cls-1" d="M152,2.77c-1.37,1.49-3.67,1.76-6,1.86-1.2.06-2.41.09-3.61.18-2.27.19-4.59.49-6,2a4.3,4.3,0,0,0-.72,1.09,4,4,0,0,0-.32,1.69v.85a4.08,4.08,0,0,1,.32-1.7,4.24,4.24,0,0,1,.72-1.08c1.38-1.49,3.7-1.8,6-2,1.2-.1,2.4-.18,3.61-.25,2.27-.1,4.58-.3,6-1.79a4.06,4.06,0,0,0,.68-1V1.76a3.89,3.89,0,0,1-.68,1"/><path class="cls-1" d="M152,4.53c-1.37,1.49-3.68,1.7-6,1.8-1.21.07-2.4.15-3.61.25-2.27.18-4.59.48-6,2a4.49,4.49,0,0,0-.72,1.09,4.06,4.06,0,0,0-.32,1.69v.85a4,4,0,0,1,.32-1.69,4.49,4.49,0,0,1,.72-1.09c1.38-1.49,3.7-1.79,6-2,1.21-.09,2.4-.12,3.61-.18,2.27-.1,4.58-.37,6-1.86a4.06,4.06,0,0,0,.68-1V3.53a4,4,0,0,1-.68,1"/><path class="cls-1" d="M152,8.06c-1.37,1.49-3.67,1.76-6,1.86-1.21.06-2.4.09-3.61.19-2.27.18-4.59.48-6,2a4.49,4.49,0,0,0-.72,1.09,4,4,0,0,0-.32,1.69v.85a4,4,0,0,1,.32-1.69,4.13,4.13,0,0,1,.72-1.09c1.38-1.49,3.7-1.79,6-2,1.21-.09,2.4-.12,3.61-.18,2.27-.1,4.58-.37,6-1.86a4.06,4.06,0,0,0,.68-1V7.05a4.06,4.06,0,0,1-.68,1"/><path class="cls-1" d="M152,9.82c-1.37,1.49-3.68,1.76-6,1.86-1.21.07-2.4.09-3.61.19-2.27.18-4.59.49-6,2a4.24,4.24,0,0,0-.72,1.08,4.08,4.08,0,0,0-.32,1.7v.84a4.06,4.06,0,0,1,.32-1.69,4.49,4.49,0,0,1,.72-1.09c1.38-1.49,3.7-1.79,6-2,1.21-.1,2.4-.12,3.61-.19,2.28-.1,4.58-.37,6-1.86a4.06,4.06,0,0,0,.68-1V8.82a4,4,0,0,1-.68,1"/><path class="cls-1" d="M152,11.59c-1.37,1.48-3.68,1.76-6,1.86-1.21.06-2.4.09-3.61.18-2.27.19-4.59.49-6,2a4.3,4.3,0,0,0-.72,1.09,4,4,0,0,0-.32,1.69v.85a4.08,4.08,0,0,1,.32-1.7,4.24,4.24,0,0,1,.72-1.08c1.38-1.49,3.7-1.8,6-2,1.2-.1,2.4-.12,3.6-.19,2.28-.1,4.59-.45,6-1.94a4.06,4.06,0,0,0,.68-1v-.76a4.06,4.06,0,0,1-.68,1"/><path class="cls-2" d="M152,7.14c-1.37,1.49-3.66,1.76-6,1.86-1.21.07-2.4.09-3.61.19-2.27.18-4.59.48-6,2a4.49,4.49,0,0,0-.72,1.09,4.06,4.06,0,0,0-.32,1.69v.92a4,4,0,0,1,.32-1.69,4.49,4.49,0,0,1,.72-1.09c1.38-1.49,3.7-1.79,6-2,1.21-.1,2.4-.13,3.61-.19,2.27-.1,4.58-.37,6-1.86a4.06,4.06,0,0,0,.68-1V6.14a4,4,0,0,1-.68,1"/><path class="cls-1" d="M152,6.3c-1.37,1.49-3.68,1.75-6,1.86-1.16.06-2.31.08-3.47.17h-.14c-2.27.19-4.59.49-6,2a4.13,4.13,0,0,0-.72,1.09,4,4,0,0,0-.32,1.69v.84a4.06,4.06,0,0,1,.32-1.69,4.49,4.49,0,0,1,.72-1.09c1.38-1.49,3.7-1.79,6-2,1.21-.1,2.4-.12,3.61-.19,2.28-.1,4.58-.37,6-1.86a4,4,0,0,0,.68-1V5.29a4.06,4.06,0,0,1-.68,1"/><path class="cls-1" d="M140.79,3.31a7,7,0,0,0-4.3,1.77,4.49,4.49,0,0,0-.72,1.09,4.06,4.06,0,0,0-.32,1.69v4.29a3.79,3.79,0,0,1,.32-1.63,4.05,4.05,0,0,1,.72-1.09,7,7,0,0,1,4.3-1.83Z"/><path class="cls-2" d="M139.22,5.52A3,3,0,0,1,137.74,8c-.87.53-1.6.11-1.65-.82a3,3,0,0,1,1.49-2.46c.86-.53,1.6-.11,1.64.82"/><path class="cls-3" d="M137.26,5.39h0v0h0s0,0,0,0,0,.08,0,.08v0s0,0,0,0h0l0,0h0a0,0,0,0,0,0,0h0l0,0s.05,0,.07,0,0,0,0,0v0h0l.05,0h0l0,0h0a.26.26,0,0,0,0-.08s0-.08,0-.11,0,0,0,0h0a.24.24,0,0,0,0,.1h0v0h0a.17.17,0,0,1,0,.07h0a.08.08,0,0,0,.08,0s0,0,0,0h0s0,0,.07,0h0a0,0,0,0,1,0,0v0s0,0,0,0h.07l0,0s0,0,0,0h0s0,0,0,0v0s0,0,0,0l0,0h0s0,0,.06,0l0,0s0,0,.08,0,.06,0,.09,0a0,0,0,0,0,0,0s0,0,.05,0,0,0,0,0h0l.07,0s0,.07.05.1a.33.33,0,0,1-.05.2l0,.05v0c-.06.06-.06.16-.11.22s0,0,0,0l0,0h0a.38.38,0,0,0,0,.15s0,.09,0,.12,0,0,0,0,0,.09,0,.13,0,.07,0,.1h0s0,0,0,0a0,0,0,0,1,0,0s0,0-.06.07v0a.37.37,0,0,0-.12.07h0l0,0,0,0h0s0,0,0,0v0h0l0,0,0,0s0,0,0,.07h0a0,0,0,0,0,0,0h0V7h0s0,0,0,0h0V7h0s0,0,0,.08a.7.7,0,0,0-.08.14s0,0,0,0a.11.11,0,0,1,0,.06l-.07.11h0s0,0,0,.07l0,.06s0,0,0,0l0,0h0s0,0,0,0,0,0,0,0h-.07s0,0,0,0h0a.08.08,0,0,0-.07,0h0l0,0h0s0,0,0,0a.1.1,0,0,0,0-.07.56.56,0,0,0,.05-.08h0l0-.06v0l0,0s0,0,0-.05,0,0,0,0,0,0,0,0h0s0,0,0,0,0,0,0-.06,0,0-.06,0,0,0,0,0V7h0s0,0,0,0-.07,0-.09,0a0,0,0,0,1,0,0s0,0,0,0,0,0,0-.05h0s0,0,0,0h0a.25.25,0,0,1,0-.07s0,0,0-.05l0,0h0s-.05,0,0,0v0l-.11.06v0s0,0,0,0h0s0,0,0,0,0,0,0,0h0l0,0,0,0s0,0-.06,0,0,0,0,0,0,0,0,0h0v0h0s0,0,0,0,0-.06,0-.08v0s0,0-.06,0l0,0s0,0,0,0h0a.08.08,0,0,1,0,0h0s-.06,0-.09.06h0V6.68h0l0,0-.05,0s0,0,0,0l-.05,0,0,0s0,0,0,0,0,0,0,0h0s0,0,0,0h0s0-.05,0-.07,0-.06,0-.09,0,0,0,0,0,0,0,0l0,0s0,0,0,0h0s0,0,0,0h0a1.23,1.23,0,0,0,0-.19s0,0,0,0v0h0V6l0,0s0,0,0,0V6l0,0v0l.09,0v0a0,0,0,0,1,0,0,.08.08,0,0,1,0,0h0s0,0,0,0h0s0,0,.05,0h0v0s0,0,0,0v0h0l0,0h0s0,0,0,0v0l0,0v0l0,0v0s0,0,0,0,0,0,0,0,0,0,0,0l0,0s0,0,0,0h0s0,0,0,0h0s0,0,0,0v0h0l0,0h0s0,0,0,0l0,0h0v0s0,0,0,0,0,0,0,0"/><polygon class="cls-2" points="139.61 4.82 139.94 4.51 140.27 4.7 140.14 4.32 140.47 4.01 140.06 4.09 139.94 3.71 139.81 4.13 139.41 4.21 139.74 4.4 139.61 4.82"/><polygon class="cls-2" points="140.5 6.36 140.05 6.44 139.92 6.03 139.78 6.49 139.34 6.57 139.69 6.77 139.56 7.24 139.92 6.9 140.28 7.1 140.14 6.69 140.5 6.36"/><path class="cls-2" d="M135.78,7.16l.18.16s-.09-.28-.11-.38v0l.13-.46s-.09.14-.15.25c0-.1,0-.2,0-.2s0,.18-.06.34l-.1.19.06,0c0,.19-.08.68-.08.68Z"/><path class="cls-2" d="M136,8.94l.16-.59-.22.32c0-.17-.05-.31-.05-.31l-.06.49-.14.3.11,0h0c0,.18-.06.7-.06.7l.18-.66.16.07s0-.17-.08-.37"/></g></g></svg>